HIERARCHY
ROOT Hips
{
	OFFSET 0.00000 0.00000 0.00000
	CHANNELS 6 Xposition Yposition Zposition Zrotation Yrotation Xrotation 
	JOINT RightUpLegDummy
	{
		OFFSET 0 0 0
		CHANNELS 3 Zrotation Yrotation Xrotation
		JOINT RightUpLeg
		{
			OFFSET -3.52197 -3.41223 0.04002
			CHANNELS 3 Zrotation Yrotation Xrotation
			JOINT RightLeg
			{
				OFFSET 0.00006 -17.42390 1.60435
				CHANNELS 3 Zrotation Yrotation Xrotation
				JOINT RightFoot
				{
					OFFSET 0.06153 -16.50078 -1.63901
					CHANNELS 3 Zrotation Yrotation Xrotation
					JOINT RightToes
					{
						OFFSET 0.00298 -1.73825 3.34613
						CHANNELS 3 Zrotation Yrotation Xrotation
						End Site
						{
							OFFSET 0.00480 -0.05416 3.85043
						}
					}
				}
			}
		}
	}
	JOINT SpineDummy
	{
		OFFSET 0 0 0
		CHANNELS 3 Zrotation Yrotation Xrotation
		JOINT Spine
		{
			OFFSET 0.00000 4.68130 0.00000
			CHANNELS 3 Zrotation Yrotation Xrotation
			JOINT Spine1
			{
				OFFSET -0.00000 10.10138 0.05002
				CHANNELS 3 Zrotation Yrotation Xrotation
				JOINT HEadDummy
				{
					OFFSET 0 0 0
					CHANNELS 3 Zrotation Yrotation Xrotation
					JOINT Head
					{
						OFFSET -0.00000 3.43865 0.00438
						CHANNELS 3 Zrotation Yrotation Xrotation
						End Site
						{
							OFFSET -0.11417 5.02924 0.98962
						}
					}
				}
				JOINT LeftShoulder1Dummy
				{
					OFFSET 0 0 0
					CHANNELS 3 Zrotation Yrotation Xrotation
					JOINT LeftShoulder1
					{
						OFFSET 3.53937 -0.14262 -0.08662
						CHANNELS 3 Zrotation Yrotation Xrotation
						JOINT LeftArm
						{
							OFFSET 4.04833 -0.00133 0.12681
							CHANNELS 3 Zrotation Yrotation Xrotation
							JOINT LeftForeArm
							{
								OFFSET 10.33880 -0.01036 -0.55515
								CHANNELS 3 Zrotation Yrotation Xrotation
								JOINT LeftHand
								{
									OFFSET 8.69677 0.07543 0.40060
									CHANNELS 3 Zrotation Yrotation Xrotation
									End Site
									{
										OFFSET 5.28377 -0.21905 0.59205
									}
								}
							}
						}
					}
				}
				JOINT RightShoulderDummy
				{
					OFFSET 0 0 0
					CHANNELS 3 Zrotation Yrotation Xrotation
					JOINT RightShoulder
					{
						OFFSET -3.53937 -0.14262 -0.08660
						CHANNELS 3 Zrotation Yrotation Xrotation
						JOINT RightArm
						{
							OFFSET -4.04833 -0.00133 0.12683
							CHANNELS 3 Zrotation Yrotation Xrotation
							JOINT RightForeArm
							{
								OFFSET -10.37987 -0.01039 -0.55511
								CHANNELS 3 Zrotation Yrotation Xrotation
								JOINT RightHand
								{
									OFFSET -8.67398 0.07538 0.40058
									CHANNELS 3 Zrotation Yrotation Xrotation
									End Site
									{
										OFFSET -5.24810 -0.21916 0.59204
									}
								}
							}
						}
					}
				}
			}
		}
	}
	JOINT LeftUpLegDummy
	{
		OFFSET 0 0 0
		CHANNELS 3 Zrotation Yrotation Xrotation
		JOINT LeftUpLeg
		{
			OFFSET 3.52197 -3.41223 0.04002
			CHANNELS 3 Zrotation Yrotation Xrotation
			JOINT LeftLeg
			{
				OFFSET -0.00012 -17.42399 1.60337
				CHANNELS 3 Zrotation Yrotation Xrotation
				JOINT LeftFoot
				{
					OFFSET -0.09972 -16.50070 -1.63802
					CHANNELS 3 Zrotation Yrotation Xrotation
					JOINT LeftToes
					{
						OFFSET -0.01575 -1.73823 3.34611
						CHANNELS 3 Zrotation Yrotation Xrotation
						End Site
						{
							OFFSET 0.03150 -0.01868 3.85031
						}
					}
				}
			}
		}
	}
}
MOTION
Frames: 11
Frame Time: 0.033333
50.3807 40.0966 -4.0512 -47.3214 -87.7527 45.4156 0.0000 0.0000 0.0000 2.8985 -0.8000 2.1854 -1.2215 -2.3294 4.0156 -3.3296 0.1628 -4.6503 0.0000 -0.0000 0.0000 0.0000 0.0000 0.0000 1.4180 -0.3817 -0.4666 0.9823 -0.6903 2.5213 -0.0000 0.0000 -0.0000 1.6511 -3.2755 7.5056 -0.0000 0.0000 -0.0000 -33.5290 -2.5077 2.3778 -44.9231 -16.4948 -17.8912 -9.7336 4.9796 53.2528 14.9740 -3.7785 -1.1521 -0.0000 0.0000 -0.0000 35.8533 5.3165 3.6952 39.6751 6.5384 -15.8720 11.0177 -1.5800 25.7008 -10.2303 1.5398 -0.5972 0.0000 0.0000 0.0000 0.6473 1.1911 -0.0121 0.0683 -1.4271 7.3045 4.8643 -0.2039 -5.7009 0.0000 0.0000 -0.0000
50.3718 40.0966 -4.0452 -44.3120 -87.6509 42.4803 0.0000 0.0000 0.0000 2.8689 -0.8257 2.1233 -1.2220 -2.4583 4.0297 -3.2994 0.1609 -4.6692 0.0000 -0.0000 0.0000 0.0000 0.0000 0.0000 1.2362 -0.3354 -0.5089 1.3920 -0.7182 2.4818 -0.0000 0.0000 -0.0000 -0.1189 -3.5271 8.6502 -0.0000 0.0000 -0.0000 -34.0227 -2.5544 2.4266 -44.5280 -16.4165 -17.6701 -9.9633 4.9866 52.9485 15.0009 -3.7262 -1.1502 -0.0000 0.0000 -0.0000 35.2694 5.2222 3.6037 40.1116 6.6611 -16.1107 10.8909 -1.6795 26.0269 -10.0881 1.8690 -0.6150 0.0000 0.0000 0.0000 0.6052 1.1291 -0.1020 0.0872 -1.5329 7.3179 4.8303 -0.2017 -5.6861 0.0000 0.0000 -0.0000
50.3585 40.0978 -4.0451 -39.6628 -87.4803 37.9387 0.0000 0.0000 0.0000 2.8495 -0.8229 2.0365 -1.2749 -2.7140 4.0510 -3.2426 0.1574 -4.7080 0.0000 -0.0000 0.0000 0.0000 0.0000 0.0000 1.0326 -0.2570 -0.6656 1.8138 -0.7176 2.6165 -0.0000 0.0000 -0.0000 -0.3998 -3.7952 8.0677 -0.0000 0.0000 -0.0000 -34.6500 -2.6820 2.5169 -43.8916 -16.3806 -17.3013 -10.3182 4.9999 52.3970 15.2518 -3.3899 -1.1283 -0.0000 0.0000 -0.0000 34.6054 5.1024 3.4960 40.5304 6.8648 -15.6720 11.0717 -1.5319 25.6557 -10.2278 2.0104 -0.6351 0.0000 0.0000 0.0000 0.5615 1.0726 -0.2178 0.0684 -1.7306 7.3047 4.8337 -0.2020 -5.6630 0.0000 0.0000 -0.0000
50.3452 40.0990 -4.0573 -37.0182 -87.3869 35.3421 0.0000 0.0000 0.0000 2.8723 -0.7657 2.0115 -1.3715 -2.9133 4.0621 -3.1968 0.1545 -4.7385 0.0000 -0.0000 0.0000 0.0000 0.0000 0.0000 0.7657 -0.2035 -0.7640 2.1776 -0.7269 2.7757 -0.0000 0.0000 -0.0000 -0.4516 -3.5268 7.3092 -0.0000 0.0000 -0.0000 -34.9875 -2.8025 2.5875 -43.4825 -16.2749 -17.1917 -10.4663 5.0077 52.0902 15.4191 -3.0768 -1.1019 -0.0000 0.0000 -0.0000 34.3449 5.0574 3.4552 40.6072 7.1390 -15.1459 11.2788 -1.3736 25.2627 -10.4395 1.9515 -0.6438 0.0000 0.0000 0.0000 0.5699 1.1000 -0.2456 -0.0105 -1.8893 7.2701 4.8654 -0.2040 -5.6520 0.0000 0.0000 -0.0000
50.3241 40.1001 -4.0633 -37.2377 -87.4631 35.5366 0.0000 0.0000 0.0000 2.8604 -0.7473 2.0640 -1.4100 -2.8669 4.0727 -3.1884 0.1541 -4.7665 0.0000 -0.0000 0.0000 0.0000 0.0000 0.0000 0.5368 -0.1787 -0.7486 2.3416 -0.7236 2.8664 -0.0000 0.0000 -0.0000 -0.1179 -3.2942 6.6090 -0.0000 0.0000 -0.0000 -34.9064 -2.8181 2.5887 -43.5337 -16.1322 -17.5988 -10.2138 5.0001 52.4287 15.2076 -3.2638 -1.1092 -0.0000 0.0000 -0.0000 34.6610 5.1280 3.5114 40.3351 7.4344 -15.5160 11.0711 -1.4345 25.6967 -10.4560 1.9505 -0.6448 0.0000 0.0000 0.0000 0.5704 1.1481 -0.1404 -0.0642 -1.8627 7.1996 4.8662 -0.2040 -5.6593 0.0000 0.0000 -0.0000
50.2914 40.1004 -4.0461 -39.4170 -87.6631 37.6780 0.0000 0.0000 0.0000 2.7485 -0.8371 2.1257 -1.3341 -2.5720 4.1123 -3.2039 0.1552 -4.8236 0.0000 -0.0000 0.0000 0.0000 0.0000 0.0000 0.5201 -0.1879 -0.6783 2.0985 -0.6803 2.9061 -0.0000 0.0000 -0.0000 0.9984 -3.3551 5.6193 -0.0000 0.0000 -0.0000 -34.4376 -2.7011 2.5114 -43.9966 -16.0357 -18.2040 -9.7718 4.9837 53.1109 14.7106 -3.8566 -1.1427 -0.0000 0.0000 -0.0000 35.4188 5.2669 3.6355 39.8093 7.6449 -16.1201 10.7801 -1.4213 26.1980 -10.5188 1.9411 -0.6480 0.0000 0.0000 0.0000 0.4861 1.1187 0.0319 -0.0127 -1.6215 7.0928 4.8306 -0.2018 -5.6850 0.0000 0.0000 -0.0000
50.2577 40.0989 -4.0189 -43.2007 -87.8720 41.4640 0.0000 0.0000 0.0000 2.6301 -0.9411 2.1275 -1.2227 -2.2234 4.1787 -3.2181 0.1564 -4.8975 0.0000 -0.0000 0.0000 0.0000 0.0000 0.0000 0.6691 -0.2056 -0.6090 1.6533 -0.6119 2.9140 -0.0000 0.0000 -0.0000 1.8086 -2.8745 4.8609 -0.0000 0.0000 -0.0000 -33.8837 -2.5652 2.4223 -44.4936 -15.9666 -18.4115 -9.5810 4.9763 53.4086 14.2533 -4.2609 -1.1529 -0.0000 0.0000 -0.0000 36.1057 5.3747 3.7423 39.2936 7.7218 -15.7864 10.9433 -1.0335 25.7190 -10.7132 1.8603 -0.6535 0.0000 0.0000 0.0000 0.3763 1.0338 0.1345 0.1161 -1.2875 7.0478 4.7931 -0.1994 -5.7500 0.0000 0.0000 -0.0000
50.2336 40.0939 -4.0063 -49.5125 -88.0203 47.8015 0.0000 0.0000 0.0000 2.6518 -0.9236 2.0956 -1.1797 -1.9759 4.2218 -3.2323 0.1574 -4.9346 0.0000 -0.0000 0.0000 0.0000 0.0000 0.0000 0.6427 -0.1508 -0.5137 1.7218 -0.5661 2.8277 -0.0000 0.0000 -0.0000 2.4289 -1.9842 3.9032 -0.0000 0.0000 -0.0000 -33.8278 -2.5613 2.4174 -44.5216 -15.8513 -18.1552 -9.7647 4.9827 53.1439 14.0546 -4.1595 -1.1244 -0.0000 0.0000 -0.0000 36.0380 5.3573 3.7291 39.2465 7.7254 -14.8946 11.3409 -0.5040 24.7933 -10.6700 1.9129 -0.6552 0.0000 0.0000 0.0000 0.3615 0.9837 0.1218 0.2582 -0.9752 7.1534 4.7541 -0.1917 -5.8761 0.0000 0.0000 -0.0000
50.2132 40.0883 -4.0106 -58.2380 -88.1015 56.5225 0.0000 0.0000 0.0000 2.8007 -0.8044 2.1211 -1.2009 -1.8080 4.1993 -3.2543 0.1588 -4.9203 0.0000 -0.0000 0.0000 0.0000 0.0000 0.0000 0.3426 -0.0199 -0.3998 2.4648 -0.5687 2.7013 -0.0000 0.0000 -0.0000 2.3020 -2.1352 3.6262 -0.0000 0.0000 -0.0000 -34.4514 -2.6835 2.5051 -43.9847 -15.7460 -17.9761 -9.9731 4.9881 52.8994 14.0824 -3.7900 -1.0845 -0.0000 0.0000 -0.0000 35.1882 5.2228 3.5968 39.7995 7.7717 -14.6212 11.4131 -0.2286 24.5646 -10.3427 2.1491 -0.6538 0.0000 0.0000 0.0000 0.4430 0.9884 0.1010 0.3929 -0.7011 7.3352 4.6915 -0.1812 -6.0345 0.0000 0.0000 -0.0000
50.1870 40.0860 -4.0162 -66.8927 -88.1425 65.1434 0.0000 0.0000 0.0000 2.9350 -0.7092 2.2166 -1.2163 -1.6454 4.1244 -3.2744 0.1600 -4.8939 0.0000 -0.0000 0.0000 0.0000 0.0000 0.0000 0.0204 0.0537 -0.2857 3.1914 -0.6261 2.6245 -0.0000 0.0000 -0.0000 2.0406 -2.6025 3.5514 -0.0000 0.0000 -0.0000 -35.0632 -2.7665 2.5775 -43.5038 -15.7393 -18.1758 -9.8972 4.9818 53.1243 14.1777 -3.4745 -1.0559 -0.0000 0.0000 -0.0000 34.4182 5.1073 3.4815 40.4156 7.8711 -14.9965 11.1844 -0.1878 25.0271 -10.2179 2.2824 -0.6563 0.0000 0.0000 0.0000 0.5291 1.0180 0.1545 0.4907 -0.4744 7.4459 4.6353 -0.1730 -6.1537 0.0000 0.0000 -0.0000
50.1562 40.0863 -4.0180 -72.7901 -88.1656 71.0720 0.0000 0.0000 0.0000 2.9952 -0.6681 2.2610 -1.2134 -1.5228 4.0376 -3.2889 0.1609 -4.8798 0.0000 -0.0000 0.0000 0.0000 0.0000 0.0000 0.1218 -0.0249 -0.2655 2.9539 -0.6639 2.6661 -0.0000 0.0000 -0.0000 2.0925 -1.6914 3.0924 -0.0000 0.0000 -0.0000 -34.7390 -2.7472 2.5491 -43.7492 -15.8812 -18.3967 -9.6647 4.9695 53.5906 14.2231 -3.2964 -1.0388 -0.0000 0.0000 -0.0000 34.5767 5.1288 3.5044 40.5343 7.8942 -15.2241 11.0617 -0.0800 25.3376 -10.4195 2.1842 -0.6616 0.0000 0.0000 0.0000 0.5915 1.0781 0.1811 0.4878 -0.3647 7.4576 4.6529 -0.1720 -6.1941 0.0000 0.0000 -0.0000
